<?xml version="1.0" encoding="UTF-8" standalone="no"?>
<!-- Created with Inkscape (http://www.inkscape.org/) -->

<svg
   xmlns:dc="http://purl.org/dc/elements/1.1/"
   xmlns:cc="http://creativecommons.org/ns#"
   xmlns:rdf="http://www.w3.org/1999/02/22-rdf-syntax-ns#"
   xmlns:svg="http://www.w3.org/2000/svg"
   xmlns="http://www.w3.org/2000/svg"
   xmlns:xlink="http://www.w3.org/1999/xlink"
   xmlns:sodipodi="http://sodipodi.sourceforge.net/DTD/sodipodi-0.dtd"
   xmlns:inkscape="http://www.inkscape.org/namespaces/inkscape"
   width="500"
   height="500"
   id="svg2"
   version="1.1"
   inkscape:version="0.48.4 r9939"
   sodipodi:docname="readium-rotated.svg">
  <defs
     id="defs4">
    <linearGradient
       id="linearGradient3860">
      <stop
         style="stop-color:#10ff01;stop-opacity:1;"
         offset="0"
         id="stop3862" />
      <stop
         style="stop-color:#0aa100;stop-opacity:1;"
         offset="1"
         id="stop3864" />
    </linearGradient>
    <linearGradient
       id="linearGradient3818">
      <stop
         style="stop-color:#3b6c0c;stop-opacity:1"
         offset="0"
         id="stop3820" />
      <stop
         style="stop-color:#99e03d;stop-opacity:1;"
         offset="1"
         id="stop3822" />
    </linearGradient>
    <marker
       inkscape:stockid="Arrow1Mstart"
       orient="auto"
       refY="0.0"
       refX="0.0"
       id="Arrow1Mstart"
       style="overflow:visible">
      <path
         id="path5409"
         d="M 0.0,0.0 L 5.0,-5.0 L -12.5,0.0 L 5.0,5.0 L 0.0,0.0 z "
         style="fill-rule:evenodd;stroke:#000000;stroke-width:1.0pt"
         transform="scale(0.4) translate(10,0)" />
    </marker>
    <linearGradient
       id="linearGradient5261">
      <stop
         style="stop-color:#1fff1f;stop-opacity:1;"
         offset="0"
         id="stop5263" />
      <stop
         style="stop-color:#5bf033;stop-opacity:1;"
         offset="1"
         id="stop5265" />
    </linearGradient>
    <linearGradient
       id="linearGradient3801">
      <stop
         id="stop3803"
         offset="0"
         style="stop-color:#ffffff;stop-opacity:1;" />
      <stop
         id="stop3805"
         offset="1"
         style="stop-color:#dddddd;stop-opacity:1;" />
    </linearGradient>
    <linearGradient
       id="linearGradient3783">
      <stop
         style="stop-color:#000000;stop-opacity:1;"
         offset="0"
         id="stop3785" />
      <stop
         style="stop-color:#1d1d1d;stop-opacity:1;"
         offset="1"
         id="stop3787" />
    </linearGradient>
    <filter
       inkscape:collect="always"
       id="filter5337"
       x="-0.19474036"
       width="1.3894807"
       y="-0.19168382"
       height="1.3833676">
      <feGaussianBlur
         inkscape:collect="always"
         stdDeviation="28.782523"
         id="feGaussianBlur5339" />
    </filter>
    <linearGradient
       inkscape:collect="always"
       xlink:href="#linearGradient3783"
       id="linearGradient3012"
       gradientUnits="userSpaceOnUse"
       x1="327.68573"
       y1="466.03775"
       x2="165.42159"
       y2="27.303391"
       gradientTransform="matrix(0.9781476,-0.20791169,0.20791169,0.9781476,-49.281147,610.3912)" />
    <linearGradient
       inkscape:collect="always"
       xlink:href="#linearGradient5261"
       id="linearGradient3018"
       gradientUnits="userSpaceOnUse"
       x1="162.2612"
       y1="115.09434"
       x2="430.1875"
       y2="430.1875"
       gradientTransform="translate(-2.828125,552.36218)" />
    <linearGradient
       inkscape:collect="always"
       xlink:href="#linearGradient3801"
       id="linearGradient3037"
       gradientUnits="userSpaceOnUse"
       gradientTransform="matrix(0.93077119,-0.19784152,0.19674861,0.92562944,-33.813962,622.11069)"
       x1="161.32076"
       y1="154.71698"
       x2="221.53709"
       y2="298.83578" />
    <linearGradient
       inkscape:collect="always"
       xlink:href="#linearGradient3818"
       id="linearGradient3824"
       x1="260.87973"
       y1="128.27769"
       x2="249.47539"
       y2="354.2645"
       gradientUnits="userSpaceOnUse"
       gradientTransform="translate(-172.28358,586.80656)" />
    <linearGradient
       inkscape:collect="always"
       xlink:href="#linearGradient3860"
       id="linearGradient3866"
       x1="265"
       y1="853.20593"
       x2="264.40619"
       y2="693.27533"
       gradientUnits="userSpaceOnUse" />
    <filter
       inkscape:collect="always"
       id="filter3876">
      <feGaussianBlur
         inkscape:collect="always"
         stdDeviation="1.2915625"
         id="feGaussianBlur3878" />
    </filter>
    <filter
       inkscape:collect="always"
       id="filter3880">
      <feGaussianBlur
         inkscape:collect="always"
         stdDeviation="1.2915625"
         id="feGaussianBlur3882" />
    </filter>
  </defs>
  <sodipodi:namedview
     id="base"
     pagecolor="#ffffff"
     bordercolor="#666666"
     borderopacity="1.0"
     inkscape:pageopacity="0.0"
     inkscape:pageshadow="2"
     inkscape:zoom="0.70710678"
     inkscape:cx="135.13765"
     inkscape:cy="222.96147"
     inkscape:document-units="px"
     inkscape:current-layer="layer1"
     showgrid="false"
     fit-margin-top="0"
     fit-margin-left="0"
     fit-margin-right="0"
     fit-margin-bottom="0"
     inkscape:snap-global="true"
     inkscape:object-paths="true"
     inkscape:snap-intersection-paths="true"
     inkscape:object-nodes="true"
     inkscape:snap-midpoints="true"
     inkscape:window-width="1423"
     inkscape:window-height="778"
     inkscape:window-x="80"
     inkscape:window-y="675"
     inkscape:window-maximized="0" />
  <metadata
     id="metadata7">
    <rdf:RDF>
      <cc:Work
         rdf:about="">
        <dc:format>image/svg+xml</dc:format>
        <dc:type
           rdf:resource="http://purl.org/dc/dcmitype/StillImage" />
        <dc:title></dc:title>
      </cc:Work>
    </rdf:RDF>
  </metadata>
  <g
     inkscape:label="Layer 1"
     inkscape:groupmode="layer"
     id="layer1"
     transform="translate(0,-552.36218)">
    <rect
       style="opacity:0.91588781;fill:#ffffff;fill-opacity:1;fill-rule:nonzero;stroke:none"
       id="rect3814"
       width="315.09375"
       height="316.03125"
       x="-79.830452"
       y="677.36908"
       transform="matrix(0.9781476,-0.20791169,0.20791169,0.9781476,0,0)" />
    <rect
       style="opacity:0.91588781;fill:url(#linearGradient3824);fill-opacity:1;fill-rule:nonzero;stroke:none"
       id="rect3816"
       width="303.125"
       height="304.03125"
       x="-73.846077"
       y="683.36908"
       transform="matrix(0.9781476,-0.20791169,0.20791169,0.9781476,0,0)" />
    <path
       style="fill:none;stroke:#000000;stroke-width:0;stroke-miterlimit:4;stroke-opacity:1;stroke-dasharray:none"
       d="m 269.41011,678.14336 c 32.13669,-6.83086 64.11031,13.93304 70.94117,46.06974 l 14.28094,67.18651 12.67243,-22.5973 26.15814,14.69504 -32.16152,57.3142 -8.18479,14.55094 -13.59464,-9.69794 -53.05532,-37.82704 17.4248,-24.4381 21.64986,15.42967 -14.53432,-68.37863 c -3.45996,-16.27782 -19.08161,-26.42261 -35.3594,-22.96266 -16.27777,3.45995 -26.4226,19.08161 -22.96265,35.35939 l 22.55841,106.12902 c 6.83087,32.13668 -13.93303,64.1103 -46.06973,70.94117 -32.13669,6.83086 -64.11031,-13.93304 -70.94117,-46.06974 l -14.28094,-67.18651 -12.67243,22.5973 -26.15814,-14.69504 32.16152,-57.31421 8.1783,-14.5815 13.60113,9.72851 53.05532,37.82704 -17.4313,24.40753 -21.64986,-15.42967 14.54082,68.4092 c 3.45995,16.27778 19.08161,26.42261 35.3594,22.96266 16.27779,-3.45995 26.42261,-19.08161 22.96266,-35.35939 L 223.34038,749.08453 c -6.83087,-32.13668 13.93304,-64.1103 46.06973,-70.94117 z"
       id="path3870"
       inkscape:connector-curvature="0"
       sodipodi:nodetypes="sscccccccccsssssscccccccccsssss" />
    <path
       style="opacity:0.5;fill:none;stroke:url(#linearGradient3866);stroke-width:5;stroke-miterlimit:4;stroke-opacity:1;stroke-dasharray:none;filter:url(#filter3880)"
       d="m 294.8125,680.89343 c 32.85464,0 59.8125,26.95785 59.8125,59.8125 l 0,68.6875 17.09375,-19.46875 22.53125,19.8125 -43.375,49.375 -11.03125,12.53125 -11.28125,-12.3125 -44.03125,-48.03125 22.125,-20.28125 17.96875,19.59375 0,-69.90625 c 0,-16.64147 -13.17106,-29.8125 -29.8125,-29.8125 -16.64143,0 -29.8125,13.17106 -29.8125,29.8125 l 0,108.5 c 0,32.85464 -26.95785,59.8125 -59.8125,59.8125 -32.85464,0 -59.8125,-26.95785 -59.8125,-59.8125 l 0,-68.6875 -17.09375,19.46875 -22.53125,-19.8125 43.375,-49.375 11.03125,-12.5625 11.28125,12.34375 44.03125,48.03125 -22.125,20.25 -17.96875,-19.59375 0,69.9375 c 0,16.64143 13.17106,29.8125 29.8125,29.8125 16.64145,0 29.8125,-13.17106 29.8125,-29.8125 l 0,-108.5 c 0,-32.85464 26.95785,-59.8125 59.8125,-59.8125 z"
       id="path3830"
       inkscape:connector-curvature="0"
       sodipodi:nodetypes="sscccccccccsssssscccccccccsssss"
       transform="matrix(0.9781476,-0.20791169,0.20791169,0.9781476,-161.35738,69.511461)" />
    <path
       sodipodi:nodetypes="sscccccccccsssssscccccccccsssss"
       inkscape:connector-curvature="0"
       id="path3868"
       d="m 294.8125,688.89343 c 32.85464,0 59.8125,26.95785 59.8125,59.8125 l 0,68.6875 17.09375,-19.46875 22.53125,19.8125 -43.375,49.375 -11.03125,12.53125 -11.28125,-12.3125 -44.03125,-48.03125 22.125,-20.28125 17.96875,19.59375 0,-69.90625 c 0,-16.64147 -13.17106,-29.8125 -29.8125,-29.8125 -16.64143,0 -29.8125,13.17106 -29.8125,29.8125 l 0,108.5 c 0,32.85464 -26.95785,59.8125 -59.8125,59.8125 -32.85464,0 -59.8125,-26.95785 -59.8125,-59.8125 l 0,-68.6875 -17.09375,19.46875 -22.53125,-19.8125 43.375,-49.375 11.03125,-12.5625 11.28125,12.34375 44.03125,48.03125 -22.125,20.25 -17.96875,-19.59375 0,69.9375 c 0,16.64143 13.17106,29.8125 29.8125,29.8125 16.64145,0 29.8125,-13.17106 29.8125,-29.8125 l 0,-108.5 c 0,-32.85464 26.95785,-59.8125 59.8125,-59.8125 z"
       style="opacity:0.9;fill:none;stroke:#041b00;stroke-width:5;stroke-miterlimit:4;stroke-opacity:1;stroke-dasharray:none;filter:url(#filter3876)"
       transform="matrix(0.9781476,-0.20791169,0.20791169,0.9781476,-161.35738,69.511461)" />
    <path
       style="fill:url(#linearGradient3037);fill-opacity:1;fill-rule:nonzero;stroke:none"
       d="M 69.848054,683.78927 133.0597,981.17671 429.5607,918.15348 366.34905,620.76604 z m 199.562056,-5.64591 c 32.13669,-6.83086 64.11031,13.93304 70.94117,46.06974 l 14.28094,67.18651 12.67243,-22.5973 26.15814,14.69504 -32.16152,57.3142 -8.18479,14.55094 -13.59464,-9.69794 -53.05532,-37.82704 17.4248,-24.4381 21.64986,15.42967 -14.53432,-68.37863 c -3.45996,-16.27782 -19.08161,-26.42261 -35.3594,-22.96266 -16.27777,3.45995 -26.4226,19.08161 -22.96265,35.35939 l 22.55841,106.12902 c 6.83087,32.13668 -13.93303,64.1103 -46.06973,70.94117 -32.13669,6.83086 -64.11031,-13.93304 -70.94117,-46.06974 l -14.28094,-67.18651 -12.67243,22.5973 -26.15814,-14.69504 32.16152,-57.31421 8.1783,-14.5815 13.60113,9.72851 53.05532,37.82704 -17.4313,24.40753 -21.64986,-15.42967 14.54082,68.4092 c 3.45995,16.27778 19.08161,26.42261 35.3594,22.96266 16.27779,-3.45995 26.42261,-19.08161 22.96266,-35.35939 L 223.34038,749.08453 c -6.83087,-32.13668 13.93304,-64.1103 46.06973,-70.94117 z"
       id="rect3791"
       inkscape:connector-curvature="0"
       sodipodi:nodetypes="cccccsscccccccccsssssscccccccccsssss" />
    <path
       inkscape:connector-curvature="0"
       style="opacity:0.91588781;fill:url(#linearGradient3012);fill-opacity:1;fill-rule:nonzero;stroke:#000000;stroke-width:5;stroke-linecap:round;stroke-linejoin:miter;stroke-miterlimit:4;stroke-opacity:1;stroke-dasharray:none;stroke-dashoffset:0"
       d="M 39.053265,662.9873 113.97944,1015.4872 460.94673,941.73706 386.02055,589.23712 39.053265,662.9873 z m 23.693716,16.17731 308.208189,-65.51167 65.70659,309.1252 -308.20819,65.51168 -65.706589,-309.12521 z"
       id="rect3010" />
    <path
       sodipodi:nodetypes="sscccccccccsssssscccccccccsssss"
       inkscape:connector-curvature="0"
       id="path3828"
       d="m 269.41011,678.14336 c 32.13669,-6.83086 64.11031,13.93304 70.94117,46.06974 l 14.28094,67.18651 12.67243,-22.5973 26.15814,14.69504 -32.16152,57.3142 -8.18479,14.55094 -13.59464,-9.69794 -53.05532,-37.82704 17.4248,-24.4381 21.64986,15.42967 -14.53432,-68.37863 c -3.45996,-16.27782 -19.08161,-26.42261 -35.3594,-22.96266 -16.27777,3.45995 -26.4226,19.08161 -22.96265,35.35939 l 22.55841,106.12902 c 6.83087,32.13668 -13.93303,64.1103 -46.06973,70.94117 -32.13669,6.83086 -64.11031,-13.93304 -70.94117,-46.06974 l -14.28094,-67.18651 -12.67243,22.5973 -26.15814,-14.69504 32.16152,-57.31421 8.1783,-14.5815 13.60113,9.72851 53.05532,37.82704 -17.4313,24.40753 -21.64986,-15.42967 14.54082,68.4092 c 3.45995,16.27778 19.08161,26.42261 35.3594,22.96266 16.27779,-3.45995 26.42261,-19.08161 22.96266,-35.35939 L 223.34038,749.08453 c -6.83087,-32.13668 13.93304,-64.1103 46.06973,-70.94117 z"
       style="fill:none;stroke:#ffffff;stroke-width:3;stroke-miterlimit:4;stroke-opacity:1;stroke-dasharray:none" />
  </g>
</svg>
